%TF.GenerationSoftware,KiCad,Pcbnew,8.99.0-99-g23169ca1a7*%
%TF.CreationDate,2024-03-31T01:18:57-03:00*%
%TF.ProjectId,klaviatar,6b6c6176-6961-4746-9172-2e6b69636164,rev?*%
%TF.SameCoordinates,Original*%
%TF.FileFunction,Copper,L1,Top*%
%TF.FilePolarity,Positive*%
%FSLAX46Y46*%
G04 Gerber Fmt 4.6, Leading zero omitted, Abs format (unit mm)*
G04 Created by KiCad (PCBNEW 8.99.0-99-g23169ca1a7) date 2024-03-31 01:18:57*
%MOMM*%
%LPD*%
G01*
G04 APERTURE LIST*
%TA.AperFunction,ComponentPad*%
%ADD10C,2.200000*%
%TD*%
%TA.AperFunction,ComponentPad*%
%ADD11R,1.700000X1.700000*%
%TD*%
%TA.AperFunction,ComponentPad*%
%ADD12O,1.700000X1.700000*%
%TD*%
%TA.AperFunction,ViaPad*%
%ADD13C,0.600000*%
%TD*%
%TA.AperFunction,Conductor*%
%ADD14C,1.000000*%
%TD*%
G04 APERTURE END LIST*
D10*
%TO.P,SW89,1,1*%
%TO.N,/XT2_{9}*%
X378040000Y-45420000D03*
%TO.P,SW89,2,2*%
%TO.N,/XT1_{12}*%
X371690000Y-47960000D03*
%TD*%
D11*
%TO.P,J1,1,Pin_1*%
%TO.N,/XT1_{12}*%
X162260000Y-65000000D03*
D12*
%TO.P,J1,2,Pin_2*%
%TO.N,/XT1_{11}*%
X164800000Y-65000000D03*
%TO.P,J1,3,Pin_3*%
%TO.N,/XT1_{10}*%
X167340000Y-65000000D03*
%TO.P,J1,4,Pin_4*%
%TO.N,/XT1_{9}*%
X169880000Y-65000000D03*
%TO.P,J1,5,Pin_5*%
%TO.N,/XT1_{8}*%
X172420000Y-65000000D03*
%TO.P,J1,6,Pin_6*%
%TO.N,/XT1_{7}*%
X174960000Y-65000000D03*
%TO.P,J1,7,Pin_7*%
%TO.N,/XT1_{6}*%
X177500000Y-65000000D03*
%TO.P,J1,8,Pin_8*%
%TO.N,/XT1_{5}*%
X180040000Y-65000000D03*
%TO.P,J1,9,Pin_9*%
%TO.N,/XT1_{4}*%
X182580000Y-65000000D03*
%TO.P,J1,10,Pin_10*%
%TO.N,/XT1_{3}*%
X185120000Y-65000000D03*
%TO.P,J1,11,Pin_11*%
%TO.N,/XT1_{2}*%
X187660000Y-65000000D03*
%TO.P,J1,12,Pin_12*%
%TO.N,/XT1_{1}*%
X190200000Y-65000000D03*
%TO.P,J1,13,Pin_13*%
%TO.N,/XT2_{1}*%
X192740000Y-65000000D03*
%TO.P,J1,14,Pin_14*%
%TO.N,/XT2_{2}*%
X195280000Y-65000000D03*
%TO.P,J1,15,Pin_15*%
%TO.N,/XT2_{3}*%
X197820000Y-65000000D03*
%TO.P,J1,16,Pin_16*%
%TO.N,/XT2_{4}*%
X200360000Y-65000000D03*
%TO.P,J1,17,Pin_17*%
%TO.N,/XT2_{5}*%
X202900000Y-65000000D03*
%TO.P,J1,18,Pin_18*%
%TO.N,/XT2_{6}*%
X205440000Y-65000000D03*
%TO.P,J1,19,Pin_19*%
%TO.N,/XT2_{7}*%
X207980000Y-65000000D03*
%TO.P,J1,20,Pin_20*%
%TO.N,/XT2_{8}*%
X210520000Y-65000000D03*
%TO.P,J1,21,Pin_21*%
%TO.N,/XT2_{9}*%
X213060000Y-65000000D03*
%TO.P,J1,22,Pin_22*%
%TO.N,unconnected-(J1-Pin_22-Pad22)*%
X215600000Y-65000000D03*
%TO.P,J1,23,Pin_23*%
%TO.N,unconnected-(J1-Pin_23-Pad23)*%
X218140000Y-65000000D03*
%TO.P,J1,24,Pin_24*%
%TO.N,unconnected-(J1-Pin_24-Pad24)*%
X220680000Y-65000000D03*
%TO.P,J1,25,Pin_25*%
%TO.N,unconnected-(J1-Pin_25-Pad25)*%
X223220000Y-65000000D03*
%TO.P,J1,26,Pin_26*%
%TO.N,unconnected-(J1-Pin_26-Pad26)*%
X225760000Y-65000000D03*
%TO.P,J1,27,Pin_27*%
%TO.N,unconnected-(J1-Pin_27-Pad27)*%
X228300000Y-65000000D03*
%TO.P,J1,28,Pin_28*%
%TO.N,unconnected-(J1-Pin_28-Pad28)*%
X230840000Y-65000000D03*
%TO.P,J1,29,Pin_29*%
%TO.N,unconnected-(J1-Pin_29-Pad29)*%
X233380000Y-65000000D03*
%TO.P,J1,30,Pin_30*%
%TO.N,unconnected-(J1-Pin_30-Pad30)*%
X235920000Y-65000000D03*
%TD*%
D10*
%TO.P,SW88,1,1*%
%TO.N,/XT2_{8}*%
X223540000Y-72420000D03*
%TO.P,SW88,2,2*%
%TO.N,/XT1_{11}*%
X217190000Y-74960000D03*
%TD*%
%TO.P,SW87,1,1*%
%TO.N,/XT2_{7}*%
X232040000Y-90920000D03*
%TO.P,SW87,2,2*%
%TO.N,/XT1_{11}*%
X225690000Y-93460000D03*
%TD*%
%TO.P,SW86,1,1*%
%TO.N,/XT2_{6}*%
X237040000Y-109920000D03*
%TO.P,SW86,2,2*%
%TO.N,/XT1_{11}*%
X230690000Y-112460000D03*
%TD*%
%TO.P,SW85,1,1*%
%TO.N,/XT2_{5}*%
X247040000Y-128420000D03*
%TO.P,SW85,2,2*%
%TO.N,/XT1_{11}*%
X240690000Y-130960000D03*
%TD*%
%TO.P,SW84,1,1*%
%TO.N,/XT2_{8}*%
X242040000Y-72420000D03*
%TO.P,SW84,2,2*%
%TO.N,/XT1_{10}*%
X235690000Y-74960000D03*
%TD*%
%TO.P,SW83,1,1*%
%TO.N,/XT2_{7}*%
X251040000Y-90920000D03*
%TO.P,SW83,2,2*%
%TO.N,/XT1_{10}*%
X244690000Y-93460000D03*
%TD*%
%TO.P,SW82,1,1*%
%TO.N,/XT2_{6}*%
X256040000Y-109920000D03*
%TO.P,SW82,2,2*%
%TO.N,/XT1_{10}*%
X249690000Y-112460000D03*
%TD*%
%TO.P,SW81,1,1*%
%TO.N,/XT2_{5}*%
X269540000Y-136920000D03*
%TO.P,SW81,2,2*%
%TO.N,/XT1_{10}*%
X263190000Y-139460000D03*
%TD*%
%TO.P,SW80,1,1*%
%TO.N,/XT2_{8}*%
X261040000Y-72420000D03*
%TO.P,SW80,2,2*%
%TO.N,/XT1_{9}*%
X254690000Y-74960000D03*
%TD*%
%TO.P,SW79,1,1*%
%TO.N,/XT2_{7}*%
X269540000Y-90920000D03*
%TO.P,SW79,2,2*%
%TO.N,/XT1_{9}*%
X263190000Y-93460000D03*
%TD*%
%TO.P,SW78,1,1*%
%TO.N,/XT2_{6}*%
X275040000Y-109920000D03*
%TO.P,SW78,2,2*%
%TO.N,/XT1_{9}*%
X268690000Y-112460000D03*
%TD*%
%TO.P,SW77,1,1*%
%TO.N,/XT2_{5}*%
X190540000Y-128420000D03*
%TO.P,SW77,2,2*%
%TO.N,/XT1_{9}*%
X184190000Y-130960000D03*
%TD*%
%TO.P,SW76,1,1*%
%TO.N,/XT2_{8}*%
X288540000Y-90920000D03*
%TO.P,SW76,2,2*%
%TO.N,/XT1_{8}*%
X282190000Y-93460000D03*
%TD*%
%TO.P,SW75,1,1*%
%TO.N,/XT2_{7}*%
X288540000Y-127920000D03*
%TO.P,SW75,2,2*%
%TO.N,/XT1_{8}*%
X282190000Y-130460000D03*
%TD*%
%TO.P,SW74,1,1*%
%TO.N,/XT2_{6}*%
X288540000Y-147420000D03*
%TO.P,SW74,2,2*%
%TO.N,/XT1_{8}*%
X282190000Y-149960000D03*
%TD*%
%TO.P,SW73,1,1*%
%TO.N,/XT2_{5}*%
X172040000Y-128420000D03*
%TO.P,SW73,2,2*%
%TO.N,/XT1_{8}*%
X165690000Y-130960000D03*
%TD*%
%TO.P,SW72,1,1*%
%TO.N,/XT2_{8}*%
X280040000Y-72420000D03*
%TO.P,SW72,2,2*%
%TO.N,/XT1_{7}*%
X273690000Y-74960000D03*
%TD*%
%TO.P,SW71,1,1*%
%TO.N,/XT2_{7}*%
X307500000Y-99500000D03*
%TO.P,SW71,2,2*%
%TO.N,/XT1_{7}*%
X301150000Y-102040000D03*
%TD*%
%TO.P,SW70,1,1*%
%TO.N,/XT2_{6}*%
X307540000Y-137420000D03*
%TO.P,SW70,2,2*%
%TO.N,/XT1_{7}*%
X301190000Y-139960000D03*
%TD*%
%TO.P,SW69,1,1*%
%TO.N,/XT2_{5}*%
X156040000Y-147420000D03*
%TO.P,SW69,2,2*%
%TO.N,/XT1_{7}*%
X149690000Y-149960000D03*
%TD*%
%TO.P,SW68,1,1*%
%TO.N,/XT2_{8}*%
X247040000Y-45420000D03*
%TO.P,SW68,2,2*%
%TO.N,/XT1_{6}*%
X240690000Y-47960000D03*
%TD*%
%TO.P,SW67,1,1*%
%TO.N,/XT2_{7}*%
X275540000Y-45420000D03*
%TO.P,SW67,2,2*%
%TO.N,/XT1_{6}*%
X269190000Y-47960000D03*
%TD*%
%TO.P,SW66,1,1*%
%TO.N,/XT2_{6}*%
X303540000Y-72420000D03*
%TO.P,SW66,2,2*%
%TO.N,/XT1_{6}*%
X297190000Y-74960000D03*
%TD*%
%TO.P,SW65,1,1*%
%TO.N,/XT2_{5}*%
X135040000Y-128420000D03*
%TO.P,SW65,2,2*%
%TO.N,/XT1_{6}*%
X128690000Y-130960000D03*
%TD*%
%TO.P,SW64,1,1*%
%TO.N,/XT2_{8}*%
X350040000Y-45420000D03*
%TO.P,SW64,2,2*%
%TO.N,/XT1_{5}*%
X343690000Y-47960000D03*
%TD*%
%TO.P,SW63,1,1*%
%TO.N,/XT2_{7}*%
X303540000Y-45420000D03*
%TO.P,SW63,2,2*%
%TO.N,/XT1_{5}*%
X297190000Y-47960000D03*
%TD*%
%TO.P,SW62,1,1*%
%TO.N,/XT2_{6}*%
X345040000Y-71420000D03*
%TO.P,SW62,2,2*%
%TO.N,/XT1_{5}*%
X338690000Y-73960000D03*
%TD*%
%TO.P,SW61,1,1*%
%TO.N,/XT2_{5}*%
X116040000Y-128420000D03*
%TO.P,SW61,2,2*%
%TO.N,/XT1_{5}*%
X109690000Y-130960000D03*
%TD*%
%TO.P,SW60,1,1*%
%TO.N,/XT2_{8}*%
X383040000Y-109420000D03*
%TO.P,SW60,2,2*%
%TO.N,/XT1_{4}*%
X376690000Y-111960000D03*
%TD*%
%TO.P,SW59,1,1*%
%TO.N,/XT2_{7}*%
X364040000Y-109420000D03*
%TO.P,SW59,2,2*%
%TO.N,/XT1_{4}*%
X357690000Y-111960000D03*
%TD*%
%TO.P,SW58,1,1*%
%TO.N,/XT2_{6}*%
X345040000Y-109420000D03*
%TO.P,SW58,2,2*%
%TO.N,/XT1_{4}*%
X338690000Y-111960000D03*
%TD*%
%TO.P,SW57,1,1*%
%TO.N,/XT2_{5}*%
X97040000Y-128420000D03*
%TO.P,SW57,2,2*%
%TO.N,/XT1_{4}*%
X90690000Y-130960000D03*
%TD*%
%TO.P,SW56,1,1*%
%TO.N,/XT2_{8}*%
X383040000Y-128420000D03*
%TO.P,SW56,2,2*%
%TO.N,/XT1_{3}*%
X376690000Y-130960000D03*
%TD*%
%TO.P,SW55,1,1*%
%TO.N,/XT2_{7}*%
X364040000Y-128420000D03*
%TO.P,SW55,2,2*%
%TO.N,/XT1_{3}*%
X357690000Y-130960000D03*
%TD*%
%TO.P,SW54,1,1*%
%TO.N,/XT2_{6}*%
X345040000Y-128420000D03*
%TO.P,SW54,2,2*%
%TO.N,/XT1_{3}*%
X338690000Y-130960000D03*
%TD*%
%TO.P,SW53,1,1*%
%TO.N,/XT2_{5}*%
X76040000Y-147420000D03*
%TO.P,SW53,2,2*%
%TO.N,/XT1_{3}*%
X69690000Y-149960000D03*
%TD*%
%TO.P,SW52,1,1*%
%TO.N,/XT2_{8}*%
X383040000Y-147420000D03*
%TO.P,SW52,2,2*%
%TO.N,/XT1_{2}*%
X376690000Y-149960000D03*
%TD*%
%TO.P,SW51,1,1*%
%TO.N,/XT2_{7}*%
X364040000Y-147420000D03*
%TO.P,SW51,2,2*%
%TO.N,/XT1_{2}*%
X357690000Y-149960000D03*
%TD*%
%TO.P,SW50,1,1*%
%TO.N,/XT2_{6}*%
X345040000Y-147420000D03*
%TO.P,SW50,2,2*%
%TO.N,/XT1_{2}*%
X338690000Y-149960000D03*
%TD*%
%TO.P,SW49,1,1*%
%TO.N,/XT2_{5}*%
X38040000Y-128420000D03*
%TO.P,SW49,2,2*%
%TO.N,/XT1_{2}*%
X31690000Y-130960000D03*
%TD*%
%TO.P,SW48,1,1*%
%TO.N,/XT2_{8}*%
X383040000Y-90420000D03*
%TO.P,SW48,2,2*%
%TO.N,/XT1_{1}*%
X376690000Y-92960000D03*
%TD*%
%TO.P,SW47,1,1*%
%TO.N,/XT2_{7}*%
X364040000Y-90420000D03*
%TO.P,SW47,2,2*%
%TO.N,/XT1_{1}*%
X357690000Y-92960000D03*
%TD*%
%TO.P,SW46,1,1*%
%TO.N,/XT2_{6}*%
X345040000Y-90420000D03*
%TO.P,SW46,2,2*%
%TO.N,/XT1_{1}*%
X338690000Y-92960000D03*
%TD*%
%TO.P,SW45,1,1*%
%TO.N,/XT2_{5}*%
X242500000Y-147000000D03*
%TO.P,SW45,2,2*%
%TO.N,/XT1_{1}*%
X236150000Y-149540000D03*
%TD*%
%TO.P,SW44,1,1*%
%TO.N,/XT2_{4}*%
X228040000Y-128420000D03*
%TO.P,SW44,2,2*%
%TO.N,/XT1_{11}*%
X221690000Y-130960000D03*
%TD*%
%TO.P,SW43,1,1*%
%TO.N,/XT2_{3}*%
X218040000Y-109920000D03*
%TO.P,SW43,2,2*%
%TO.N,/XT1_{11}*%
X211690000Y-112460000D03*
%TD*%
%TO.P,SW42,1,1*%
%TO.N,/XT2_{4}*%
X209540000Y-128420000D03*
%TO.P,SW42,2,2*%
%TO.N,/XT1_{10}*%
X203190000Y-130960000D03*
%TD*%
%TO.P,SW41,1,1*%
%TO.N,/XT2_{3}*%
X199540000Y-109920000D03*
%TO.P,SW41,2,2*%
%TO.N,/XT1_{10}*%
X193190000Y-112460000D03*
%TD*%
%TO.P,SW40,1,1*%
%TO.N,/XT2_{4}*%
X181040000Y-109920000D03*
%TO.P,SW40,2,2*%
%TO.N,/XT1_{9}*%
X174690000Y-112460000D03*
%TD*%
%TO.P,SW39,1,1*%
%TO.N,/XT2_{3}*%
X175540000Y-90920000D03*
%TO.P,SW39,2,2*%
%TO.N,/XT1_{9}*%
X169190000Y-93460000D03*
%TD*%
%TO.P,SW38,1,1*%
%TO.N,/XT2_{4}*%
X162040000Y-109920000D03*
%TO.P,SW38,2,2*%
%TO.N,/XT1_{8}*%
X155690000Y-112460000D03*
%TD*%
%TO.P,SW37,1,1*%
%TO.N,/XT2_{3}*%
X157040000Y-90920000D03*
%TO.P,SW37,2,2*%
%TO.N,/XT1_{8}*%
X150690000Y-93460000D03*
%TD*%
%TO.P,SW36,1,1*%
%TO.N,/XT2_{4}*%
X153540000Y-128420000D03*
%TO.P,SW36,2,2*%
%TO.N,/XT1_{7}*%
X147190000Y-130960000D03*
%TD*%
%TO.P,SW35,1,1*%
%TO.N,/XT2_{3}*%
X143540000Y-109920000D03*
%TO.P,SW35,2,2*%
%TO.N,/XT1_{7}*%
X137190000Y-112460000D03*
%TD*%
%TO.P,SW34,1,1*%
%TO.N,/XT2_{4}*%
X124540000Y-109920000D03*
%TO.P,SW34,2,2*%
%TO.N,/XT1_{6}*%
X118190000Y-112460000D03*
%TD*%
%TO.P,SW33,1,1*%
%TO.N,/XT2_{3}*%
X120040000Y-90920000D03*
%TO.P,SW33,2,2*%
%TO.N,/XT1_{6}*%
X113690000Y-93460000D03*
%TD*%
%TO.P,SW32,1,1*%
%TO.N,/XT2_{4}*%
X105540000Y-109920000D03*
%TO.P,SW32,2,2*%
%TO.N,/XT1_{5}*%
X99190000Y-112460000D03*
%TD*%
%TO.P,SW31,1,1*%
%TO.N,/XT2_{3}*%
X101040000Y-90920000D03*
%TO.P,SW31,2,2*%
%TO.N,/XT1_{5}*%
X94690000Y-93460000D03*
%TD*%
%TO.P,SW30,1,1*%
%TO.N,/XT2_{4}*%
X87040000Y-109920000D03*
%TO.P,SW30,2,2*%
%TO.N,/XT1_{4}*%
X80690000Y-112460000D03*
%TD*%
%TO.P,SW29,1,1*%
%TO.N,/XT2_{3}*%
X82040000Y-90920000D03*
%TO.P,SW29,2,2*%
%TO.N,/XT1_{4}*%
X75690000Y-93460000D03*
%TD*%
%TO.P,SW28,1,1*%
%TO.N,/XT2_{4}*%
X78040000Y-128920000D03*
%TO.P,SW28,2,2*%
%TO.N,/XT1_{3}*%
X71690000Y-131460000D03*
%TD*%
%TO.P,SW27,1,1*%
%TO.N,/XT2_{3}*%
X68040000Y-109920000D03*
%TO.P,SW27,2,2*%
%TO.N,/XT1_{3}*%
X61690000Y-112460000D03*
%TD*%
%TO.P,SW26,1,1*%
%TO.N,/XT2_{4}*%
X59540000Y-128420000D03*
%TO.P,SW26,2,2*%
%TO.N,/XT1_{2}*%
X53190000Y-130960000D03*
%TD*%
%TO.P,SW25,1,1*%
%TO.N,/XT2_{3}*%
X43040000Y-109920000D03*
%TO.P,SW25,2,2*%
%TO.N,/XT1_{2}*%
X36690000Y-112460000D03*
%TD*%
%TO.P,SW24,1,1*%
%TO.N,/XT2_{5}*%
X45540000Y-147420000D03*
%TO.P,SW24,2,2*%
%TO.N,/XT1_{1}*%
X39190000Y-149960000D03*
%TD*%
%TO.P,SW22,1,1*%
%TO.N,/XT2_{2}*%
X213540000Y-90920000D03*
%TO.P,SW22,2,2*%
%TO.N,/XT1_{11}*%
X207190000Y-93460000D03*
%TD*%
%TO.P,SW21,1,1*%
%TO.N,/XT2_{2}*%
X194540000Y-90920000D03*
%TO.P,SW21,2,2*%
%TO.N,/XT1_{10}*%
X188190000Y-93460000D03*
%TD*%
%TO.P,SW20,1,1*%
%TO.N,/XT2_{2}*%
X167040000Y-72420000D03*
%TO.P,SW20,2,2*%
%TO.N,/XT1_{9}*%
X160690000Y-74960000D03*
%TD*%
%TO.P,SW19,1,1*%
%TO.N,/XT2_{2}*%
X148540000Y-72420000D03*
%TO.P,SW19,2,2*%
%TO.N,/XT1_{8}*%
X142190000Y-74960000D03*
%TD*%
%TO.P,SW18,1,1*%
%TO.N,/XT2_{2}*%
X138540000Y-90920000D03*
%TO.P,SW18,2,2*%
%TO.N,/XT1_{7}*%
X132190000Y-93460000D03*
%TD*%
%TO.P,SW17,1,1*%
%TO.N,/XT2_{2}*%
X110540000Y-72420000D03*
%TO.P,SW17,2,2*%
%TO.N,/XT1_{6}*%
X104190000Y-74960000D03*
%TD*%
%TO.P,SW16,1,1*%
%TO.N,/XT2_{2}*%
X92040000Y-72420000D03*
%TO.P,SW16,2,2*%
%TO.N,/XT1_{5}*%
X85690000Y-74960000D03*
%TD*%
%TO.P,SW15,1,1*%
%TO.N,/XT2_{2}*%
X73040000Y-72420000D03*
%TO.P,SW15,2,2*%
%TO.N,/XT1_{4}*%
X66690000Y-74960000D03*
%TD*%
%TO.P,SW14,1,1*%
%TO.N,/XT2_{2}*%
X63040000Y-90920000D03*
%TO.P,SW14,2,2*%
%TO.N,/XT1_{3}*%
X56690000Y-93460000D03*
%TD*%
%TO.P,SW13,1,1*%
%TO.N,/XT2_{2}*%
X40500000Y-91000000D03*
%TO.P,SW13,2,2*%
%TO.N,/XT1_{2}*%
X34150000Y-93540000D03*
%TD*%
%TO.P,SW12,1,1*%
%TO.N,/XT2_{2}*%
X364040000Y-71420000D03*
%TO.P,SW12,2,2*%
%TO.N,/XT1_{1}*%
X357690000Y-73960000D03*
%TD*%
%TO.P,SW11,1,1*%
%TO.N,/XT2_{1}*%
X204540000Y-72420000D03*
%TO.P,SW11,2,2*%
%TO.N,/XT1_{11}*%
X198190000Y-74960000D03*
%TD*%
%TO.P,SW10,1,1*%
%TO.N,/XT2_{1}*%
X186040000Y-72420000D03*
%TO.P,SW10,2,2*%
%TO.N,/XT1_{10}*%
X179690000Y-74960000D03*
%TD*%
%TO.P,SW9,1,1*%
%TO.N,/XT2_{1}*%
X153540000Y-45920000D03*
%TO.P,SW9,2,2*%
%TO.N,/XT1_{9}*%
X147190000Y-48460000D03*
%TD*%
%TO.P,SW8,1,1*%
%TO.N,/XT2_{1}*%
X124540000Y-45920000D03*
%TO.P,SW8,2,2*%
%TO.N,/XT1_{8}*%
X118190000Y-48460000D03*
%TD*%
%TO.P,SW7,1,1*%
%TO.N,/XT2_{1}*%
X129540000Y-72420000D03*
%TO.P,SW7,2,2*%
%TO.N,/XT1_{7}*%
X123190000Y-74960000D03*
%TD*%
%TO.P,SW6,1,1*%
%TO.N,/XT2_{1}*%
X97040000Y-45920000D03*
%TO.P,SW6,2,2*%
%TO.N,/XT1_{6}*%
X90690000Y-48460000D03*
%TD*%
%TO.P,SW5,1,1*%
%TO.N,/XT2_{1}*%
X69540000Y-45920000D03*
%TO.P,SW5,2,2*%
%TO.N,/XT1_{5}*%
X63190000Y-48460000D03*
%TD*%
%TO.P,SW4,1,1*%
%TO.N,/XT2_{1}*%
X40040000Y-45920000D03*
%TO.P,SW4,2,2*%
%TO.N,/XT1_{4}*%
X33690000Y-48460000D03*
%TD*%
%TO.P,SW3,1,1*%
%TO.N,/XT2_{1}*%
X54040000Y-72420000D03*
%TO.P,SW3,2,2*%
%TO.N,/XT1_{3}*%
X47690000Y-74960000D03*
%TD*%
%TO.P,SW2,1,1*%
%TO.N,/XT2_{1}*%
X35540000Y-72420000D03*
%TO.P,SW2,2,2*%
%TO.N,/XT1_{2}*%
X29190000Y-74960000D03*
%TD*%
%TO.P,SW1,1,1*%
%TO.N,/XT2_{1}*%
X383040000Y-71420000D03*
%TO.P,SW1,2,2*%
%TO.N,/XT1_{1}*%
X376690000Y-73960000D03*
%TD*%
D13*
%TO.N,/XT1_{5}*%
X206000000Y-43500000D03*
X188000000Y-56802944D03*
%TO.N,/XT2_{2}*%
X201000000Y-45500000D03*
X240000000Y-41000000D03*
%TD*%
D14*
%TO.N,/XT1_{1}*%
X39190000Y-149960000D02*
X39190000Y-152579087D01*
X377789999Y-72860001D02*
X376690000Y-73960000D01*
X39190000Y-152579087D02*
X51110913Y-164500000D01*
X372500000Y-164500000D02*
X385000000Y-152000000D01*
X51110913Y-164500000D02*
X372500000Y-164500000D01*
X385000000Y-152000000D02*
X385000000Y-77000000D01*
X385000000Y-77000000D02*
X380860001Y-72860001D01*
X380860001Y-72860001D02*
X377789999Y-72860001D01*
%TO.N,/XT1_{2}*%
X338690000Y-149960000D02*
X325650000Y-163000000D01*
X325650000Y-163000000D02*
X78413857Y-163000000D01*
X78413857Y-163000000D02*
X59750000Y-144336143D01*
X59750000Y-144336143D02*
X59750000Y-132360913D01*
X59750000Y-132360913D02*
X57249088Y-129860001D01*
X57249088Y-129860001D02*
X54289999Y-129860001D01*
X54289999Y-129860001D02*
X53190000Y-130960000D01*
%TO.N,/XT1_{5}*%
X188000000Y-56802944D02*
X201302944Y-43500000D01*
X201302944Y-43500000D02*
X206000000Y-43500000D01*
%TO.N,/XT2_{2}*%
X364040000Y-71420000D02*
X364040000Y-54460001D01*
X364040000Y-54460001D02*
X350579999Y-41000000D01*
X350579999Y-41000000D02*
X240000000Y-41000000D01*
X201000000Y-45500000D02*
X201000000Y-46000000D01*
X201000000Y-46000000D02*
X195280000Y-51720000D01*
X195280000Y-51720000D02*
X195280000Y-65000000D01*
%TO.N,/XT2_{9}*%
X378040000Y-45420000D02*
X371620000Y-39000000D01*
X371620000Y-39000000D02*
X239060000Y-39000000D01*
X239060000Y-39000000D02*
X213060000Y-65000000D01*
%TO.N,/XT1_{5}*%
X343690000Y-47960000D02*
X343690000Y-48190000D01*
X343690000Y-48190000D02*
X338690000Y-53190000D01*
X338690000Y-53190000D02*
X338690000Y-73960000D01*
X343690000Y-47960000D02*
X343480000Y-47750000D01*
X343480000Y-47750000D02*
X297400000Y-47750000D01*
X297400000Y-47750000D02*
X297190000Y-47960000D01*
%TO.N,/XT2_{6}*%
X205440000Y-65000000D02*
X207440000Y-67000000D01*
X207440000Y-67000000D02*
X283913857Y-67000000D01*
X302500000Y-82500000D02*
X304639999Y-80360001D01*
X283913857Y-67000000D02*
X299413857Y-82500000D01*
X299413857Y-82500000D02*
X302500000Y-82500000D01*
X304639999Y-73519999D02*
X303540000Y-72420000D01*
X304639999Y-80360001D02*
X304639999Y-73519999D01*
%TO.N,/XT1_{7}*%
X174960000Y-65000000D02*
X178460000Y-68500000D01*
X178460000Y-68500000D02*
X246000000Y-68500000D01*
X246000000Y-68500000D02*
X247500000Y-70000000D01*
X247500000Y-70000000D02*
X268730000Y-70000000D01*
X268730000Y-70000000D02*
X273690000Y-74960000D01*
%TO.N,/XT2_{8}*%
X247040000Y-45420000D02*
X248840000Y-43620000D01*
X248840000Y-43620000D02*
X348240000Y-43620000D01*
X348240000Y-43620000D02*
X350040000Y-45420000D01*
X280040000Y-72420000D02*
X288540000Y-80920000D01*
X288540000Y-80920000D02*
X288540000Y-90920000D01*
%TO.N,/XT2_{6}*%
X303540000Y-72420000D02*
X321540000Y-90420000D01*
X321540000Y-90420000D02*
X345040000Y-90420000D01*
%TO.N,/XT2_{1}*%
X186040000Y-72420000D02*
X204540000Y-72420000D01*
%TO.N,/XT1_{10}*%
X179690000Y-74960000D02*
X184030000Y-70620000D01*
X184030000Y-70620000D02*
X231350000Y-70620000D01*
X231350000Y-70620000D02*
X235690000Y-74960000D01*
%TO.N,/XT1_{9}*%
X268690000Y-112460000D02*
X268690000Y-133524415D01*
X188000000Y-142500000D02*
X184190000Y-138690000D01*
X268690000Y-133524415D02*
X271340000Y-136174415D01*
X271340000Y-136174415D02*
X271340000Y-145660000D01*
X271340000Y-145660000D02*
X268700000Y-148300000D01*
X268700000Y-148300000D02*
X249800000Y-148300000D01*
X249800000Y-148300000D02*
X244000000Y-142500000D01*
X244000000Y-142500000D02*
X188000000Y-142500000D01*
X184190000Y-138690000D02*
X184190000Y-130960000D01*
%TO.N,/XT1_{8}*%
X282190000Y-149960000D02*
X281730000Y-149500000D01*
X281730000Y-149500000D02*
X247545585Y-149500000D01*
X247545585Y-149500000D02*
X243245585Y-145200000D01*
X243245585Y-145200000D02*
X177310913Y-145200000D01*
X177310913Y-145200000D02*
X165690000Y-133579087D01*
X165690000Y-133579087D02*
X165690000Y-130960000D01*
%TO.N,/XT1_{7}*%
X301190000Y-139960000D02*
X301190000Y-141515634D01*
X301190000Y-141515634D02*
X287205634Y-155500000D01*
X287205634Y-155500000D02*
X247500000Y-155500000D01*
X247500000Y-155500000D02*
X239500000Y-147500000D01*
X239500000Y-147500000D02*
X159000000Y-147500000D01*
X156750000Y-149750000D02*
X149480000Y-149750000D01*
X159000000Y-147500000D02*
X156750000Y-149750000D01*
X149480000Y-149750000D02*
X149690000Y-149960000D01*
%TO.N,/XT1_{1}*%
X338690000Y-92960000D02*
X338690000Y-108815585D01*
X338690000Y-108815585D02*
X308000000Y-139505585D01*
X241990913Y-158000000D02*
X236150000Y-152159087D01*
X308000000Y-139505585D02*
X308000000Y-143389087D01*
X308000000Y-143389087D02*
X293389087Y-158000000D01*
X293389087Y-158000000D02*
X241990913Y-158000000D01*
X236150000Y-152159087D02*
X236150000Y-149540000D01*
%TO.N,/XT1_{4}*%
X338690000Y-111960000D02*
X338690000Y-114396143D01*
X338690000Y-114396143D02*
X293586143Y-159500000D01*
X293586143Y-159500000D02*
X116610913Y-159500000D01*
X116610913Y-159500000D02*
X90690000Y-133579087D01*
X90690000Y-133579087D02*
X90690000Y-130960000D01*
%TO.N,/XT1_{3}*%
X338690000Y-130960000D02*
X308650000Y-161000000D01*
X78110913Y-161000000D02*
X69690000Y-152579087D01*
X308650000Y-161000000D02*
X78110913Y-161000000D01*
X69690000Y-152579087D02*
X69690000Y-149960000D01*
%TO.N,/XT1_{7}*%
X301150000Y-102040000D02*
X301150000Y-139920000D01*
X301150000Y-139920000D02*
X301190000Y-139960000D01*
%TO.N,/XT1_{1}*%
X190200000Y-65000000D02*
X162120000Y-36920000D01*
X162120000Y-36920000D02*
X38580000Y-36920000D01*
X38580000Y-36920000D02*
X27390000Y-48110000D01*
X27390000Y-48110000D02*
X27390000Y-138160000D01*
X27390000Y-138160000D02*
X39190000Y-149960000D01*
%TO.N,/XT1_{2}*%
X187660000Y-65000000D02*
X160780000Y-38120000D01*
X29190000Y-48310000D02*
X29190000Y-74960000D01*
X160780000Y-38120000D02*
X39380000Y-38120000D01*
X39380000Y-38120000D02*
X29190000Y-48310000D01*
%TO.N,/XT1_{3}*%
X185120000Y-65000000D02*
X159440000Y-39320000D01*
X159440000Y-39320000D02*
X40284415Y-39320000D01*
X40284415Y-39320000D02*
X31500000Y-48104415D01*
X31500000Y-48104415D02*
X31500000Y-58770000D01*
X31500000Y-58770000D02*
X47690000Y-74960000D01*
%TO.N,/XT1_{4}*%
X182580000Y-65000000D02*
X158100000Y-40520000D01*
X158100000Y-40520000D02*
X41630000Y-40520000D01*
X41630000Y-40520000D02*
X33690000Y-48460000D01*
%TO.N,/XT1_{5}*%
X180040000Y-65000000D02*
X156760000Y-41720000D01*
X156760000Y-41720000D02*
X69930000Y-41720000D01*
X69930000Y-41720000D02*
X63190000Y-48460000D01*
%TO.N,/XT1_{6}*%
X177500000Y-65000000D02*
X155420000Y-42920000D01*
X155420000Y-42920000D02*
X96230000Y-42920000D01*
X96230000Y-42920000D02*
X90690000Y-48460000D01*
%TO.N,/XT1_{11}*%
X164800000Y-65000000D02*
X177340000Y-77540000D01*
X177340000Y-77540000D02*
X177340000Y-103350000D01*
X177340000Y-103350000D02*
X191000000Y-117010000D01*
X191000000Y-117010000D02*
X191000000Y-121500000D01*
X191000000Y-121500000D02*
X205750000Y-136250000D01*
X205750000Y-136250000D02*
X216400000Y-136250000D01*
X216400000Y-136250000D02*
X221690000Y-130960000D01*
%TO.N,/XT1_{10}*%
X167340000Y-65000000D02*
X177300000Y-74960000D01*
X177300000Y-74960000D02*
X179690000Y-74960000D01*
%TO.N,/XT1_{8}*%
X118190000Y-48460000D02*
X122530000Y-44120000D01*
X122530000Y-44120000D02*
X154620000Y-44120000D01*
X154620000Y-44120000D02*
X172420000Y-61920000D01*
X172420000Y-61920000D02*
X172420000Y-65000000D01*
%TO.N,/XT1_{9}*%
X147190000Y-48460000D02*
X148289999Y-47360001D01*
X148289999Y-47360001D02*
X152240001Y-47360001D01*
X152240001Y-47360001D02*
X169880000Y-65000000D01*
X147190000Y-48460000D02*
X147190000Y-65690000D01*
X147190000Y-65690000D02*
X156460000Y-74960000D01*
X156460000Y-74960000D02*
X160690000Y-74960000D01*
%TO.N,/XT1_{8}*%
X282190000Y-130460000D02*
X282190000Y-149960000D01*
X282190000Y-93460000D02*
X282190000Y-130460000D01*
%TO.N,/XT1_{7}*%
X273690000Y-74960000D02*
X273690000Y-78615585D01*
X273690000Y-78615585D02*
X297114415Y-102040000D01*
X297114415Y-102040000D02*
X301150000Y-102040000D01*
%TO.N,/XT1_{3}*%
X71690000Y-131460000D02*
X71690000Y-147960000D01*
X71690000Y-147960000D02*
X69690000Y-149960000D01*
X61690000Y-112460000D02*
X61690000Y-115079087D01*
X61690000Y-115079087D02*
X71690000Y-125079087D01*
X71690000Y-125079087D02*
X71690000Y-131460000D01*
X56690000Y-93460000D02*
X56690000Y-107460000D01*
X56690000Y-107460000D02*
X61690000Y-112460000D01*
X47690000Y-74960000D02*
X47690000Y-77579087D01*
X47690000Y-77579087D02*
X56690000Y-86579087D01*
X56690000Y-86579087D02*
X56690000Y-93460000D01*
%TO.N,/XT1_{2}*%
X31690000Y-130960000D02*
X31900000Y-130750000D01*
X31900000Y-130750000D02*
X52980000Y-130750000D01*
X52980000Y-130750000D02*
X53190000Y-130960000D01*
X36690000Y-112460000D02*
X36690000Y-125960000D01*
X36690000Y-125960000D02*
X31690000Y-130960000D01*
X34150000Y-93540000D02*
X34150000Y-109920000D01*
X34150000Y-109920000D02*
X36690000Y-112460000D01*
X29190000Y-74960000D02*
X29190000Y-88580000D01*
X29190000Y-88580000D02*
X34150000Y-93540000D01*
X376690000Y-149960000D02*
X376480000Y-149750000D01*
X357900000Y-149750000D02*
X357690000Y-149960000D01*
X376480000Y-149750000D02*
X357900000Y-149750000D01*
X338690000Y-149960000D02*
X338900000Y-149750000D01*
X338900000Y-149750000D02*
X357480000Y-149750000D01*
X357480000Y-149750000D02*
X357690000Y-149960000D01*
%TO.N,/XT1_{3}*%
X357690000Y-130960000D02*
X357900000Y-130750000D01*
X357900000Y-130750000D02*
X376480000Y-130750000D01*
X376480000Y-130750000D02*
X376690000Y-130960000D01*
X338690000Y-130960000D02*
X338900000Y-130750000D01*
X338900000Y-130750000D02*
X357480000Y-130750000D01*
X357480000Y-130750000D02*
X357690000Y-130960000D01*
%TO.N,/XT1_{4}*%
X357690000Y-111960000D02*
X358540000Y-111960000D01*
X358540000Y-111960000D02*
X358750000Y-111750000D01*
X358750000Y-111750000D02*
X376480000Y-111750000D01*
X376480000Y-111750000D02*
X376690000Y-111960000D01*
X338690000Y-111960000D02*
X339789999Y-110860001D01*
X344960000Y-111960000D02*
X357690000Y-111960000D01*
X339789999Y-110860001D02*
X343860001Y-110860001D01*
X343860001Y-110860001D02*
X344960000Y-111960000D01*
%TO.N,/XT1_{1}*%
X357690000Y-73960000D02*
X358789999Y-72860001D01*
X358789999Y-72860001D02*
X362360001Y-72860001D01*
X362360001Y-72860001D02*
X363460000Y-73960000D01*
X363460000Y-73960000D02*
X376690000Y-73960000D01*
X357690000Y-92960000D02*
X357900000Y-92750000D01*
X357900000Y-92750000D02*
X376480000Y-92750000D01*
X376480000Y-92750000D02*
X376690000Y-92960000D01*
X357690000Y-92960000D02*
X345034415Y-92960000D01*
X345034415Y-92960000D02*
X344074415Y-92000000D01*
X344074415Y-92000000D02*
X339650000Y-92000000D01*
X339650000Y-92000000D02*
X338690000Y-92960000D01*
X357690000Y-73960000D02*
X357690000Y-92960000D01*
%TO.N,/XT1_{6}*%
X269190000Y-47960000D02*
X269190000Y-50579087D01*
X269190000Y-50579087D02*
X293570913Y-74960000D01*
X293570913Y-74960000D02*
X297190000Y-74960000D01*
X269190000Y-47960000D02*
X268980000Y-47750000D01*
X268980000Y-47750000D02*
X240900000Y-47750000D01*
X240900000Y-47750000D02*
X240690000Y-47960000D01*
%TO.N,/XT1_{9}*%
X263190000Y-93460000D02*
X263190000Y-106960000D01*
X263190000Y-106960000D02*
X268690000Y-112460000D01*
X254690000Y-74960000D02*
X254690000Y-84960000D01*
X254690000Y-84960000D02*
X263190000Y-93460000D01*
%TO.N,/XT1_{10}*%
X249690000Y-112460000D02*
X249690000Y-125960000D01*
X249690000Y-125960000D02*
X263190000Y-139460000D01*
X244690000Y-93460000D02*
X244690000Y-107460000D01*
X244690000Y-107460000D02*
X249690000Y-112460000D01*
X235690000Y-74960000D02*
X235690000Y-84460000D01*
X235690000Y-84460000D02*
X244690000Y-93460000D01*
%TO.N,/XT1_{11}*%
X225690000Y-93460000D02*
X225690000Y-98460000D01*
X225690000Y-98460000D02*
X211690000Y-112460000D01*
X230690000Y-112460000D02*
X230690000Y-120960000D01*
X230690000Y-120960000D02*
X240690000Y-130960000D01*
X225690000Y-93460000D02*
X225690000Y-107460000D01*
X225690000Y-107460000D02*
X230690000Y-112460000D01*
X217190000Y-74960000D02*
X217190000Y-84960000D01*
X217190000Y-84960000D02*
X225690000Y-93460000D01*
X211690000Y-112460000D02*
X211690000Y-120960000D01*
X211690000Y-120960000D02*
X221690000Y-130960000D01*
X207190000Y-93460000D02*
X207190000Y-107960000D01*
X207190000Y-107960000D02*
X211690000Y-112460000D01*
X198190000Y-74960000D02*
X198190000Y-84460000D01*
X198190000Y-84460000D02*
X207190000Y-93460000D01*
%TO.N,/XT1_{10}*%
X193190000Y-112460000D02*
X193190000Y-120960000D01*
X193190000Y-120960000D02*
X203190000Y-130960000D01*
X188190000Y-93460000D02*
X188190000Y-107460000D01*
X188190000Y-107460000D02*
X193190000Y-112460000D01*
X179690000Y-74960000D02*
X179690000Y-84960000D01*
X179690000Y-84960000D02*
X188190000Y-93460000D01*
%TO.N,/XT1_{4}*%
X80690000Y-112460000D02*
X80690000Y-120960000D01*
X80690000Y-120960000D02*
X90690000Y-130960000D01*
X75690000Y-93460000D02*
X75690000Y-107460000D01*
X75690000Y-107460000D02*
X80690000Y-112460000D01*
X66690000Y-74960000D02*
X66690000Y-84460000D01*
X66690000Y-84460000D02*
X75690000Y-93460000D01*
X33690000Y-48460000D02*
X33690000Y-51079087D01*
X53230913Y-70620000D02*
X62350000Y-70620000D01*
X33690000Y-51079087D02*
X53230913Y-70620000D01*
X62350000Y-70620000D02*
X66690000Y-74960000D01*
%TO.N,/XT1_{5}*%
X99190000Y-112460000D02*
X99190000Y-120460000D01*
X99190000Y-120460000D02*
X109690000Y-130960000D01*
X94690000Y-93460000D02*
X94690000Y-107960000D01*
X94690000Y-107960000D02*
X99190000Y-112460000D01*
X85690000Y-74960000D02*
X85690000Y-84460000D01*
X85690000Y-84460000D02*
X94690000Y-93460000D01*
X63190000Y-48460000D02*
X63190000Y-52460000D01*
X63190000Y-52460000D02*
X85690000Y-74960000D01*
%TO.N,/XT1_{6}*%
X118190000Y-112460000D02*
X118190000Y-120460000D01*
X118190000Y-120460000D02*
X128690000Y-130960000D01*
X113690000Y-93460000D02*
X113690000Y-107960000D01*
X113690000Y-107960000D02*
X118190000Y-112460000D01*
X104190000Y-74960000D02*
X104190000Y-83960000D01*
X104190000Y-83960000D02*
X113690000Y-93460000D01*
X90690000Y-48460000D02*
X90690000Y-51079087D01*
X90690000Y-51079087D02*
X104190000Y-64579087D01*
X104190000Y-64579087D02*
X104190000Y-74960000D01*
%TO.N,/XT1_{8}*%
X118190000Y-48460000D02*
X118190000Y-52515634D01*
X118190000Y-52515634D02*
X140634366Y-74960000D01*
X140634366Y-74960000D02*
X142190000Y-74960000D01*
%TO.N,/XT1_{7}*%
X147190000Y-130960000D02*
X147190000Y-147460000D01*
X147190000Y-147460000D02*
X149690000Y-149960000D01*
X137190000Y-112460000D02*
X137190000Y-120960000D01*
X137190000Y-120960000D02*
X147190000Y-130960000D01*
X132190000Y-93460000D02*
X132190000Y-107460000D01*
X132190000Y-107460000D02*
X137190000Y-112460000D01*
X123190000Y-74960000D02*
X123190000Y-84460000D01*
X123190000Y-84460000D02*
X132190000Y-93460000D01*
%TO.N,/XT1_{8}*%
X155690000Y-112460000D02*
X155690000Y-120960000D01*
X155690000Y-120960000D02*
X165690000Y-130960000D01*
X150690000Y-93460000D02*
X150690000Y-107460000D01*
X150690000Y-107460000D02*
X155690000Y-112460000D01*
X142190000Y-74960000D02*
X142190000Y-84960000D01*
X142190000Y-84960000D02*
X150690000Y-93460000D01*
%TO.N,/XT1_{9}*%
X174690000Y-112460000D02*
X174690000Y-121460000D01*
X174690000Y-121460000D02*
X184190000Y-130960000D01*
X169190000Y-93460000D02*
X169190000Y-106960000D01*
X169190000Y-106960000D02*
X174690000Y-112460000D01*
X160690000Y-74960000D02*
X160690000Y-84960000D01*
X160690000Y-84960000D02*
X169190000Y-93460000D01*
%TD*%
M02*
