M48
; DRILL file {KiCad 8.99.0-99-g23169ca1a7} date 2024-03-31T01:19:05-0300
; FORMAT={-:-/ absolute / metric / decimal}
; #@! TF.CreationDate,2024-03-31T01:19:05-03:00
; #@! TF.GenerationSoftware,Kicad,Pcbnew,8.99.0-99-g23169ca1a7
; #@! TF.FileFunction,Plated,1,2,PTH
FMAT,2
METRIC
; #@! TA.AperFunction,Plated,PTH,ViaDrill
T1C0.300
; #@! TA.AperFunction,Plated,PTH,ComponentDrill
T2C1.000
; #@! TA.AperFunction,Plated,PTH,ComponentDrill
T3C1.500
%
G90
G05
T1
X188.0Y-56.803
X201.0Y-45.5
X206.0Y-43.5
X240.0Y-41.0
T2
X162.26Y-65.0
X164.8Y-65.0
X167.34Y-65.0
X169.88Y-65.0
X172.42Y-65.0
X174.96Y-65.0
X177.5Y-65.0
X180.04Y-65.0
X182.58Y-65.0
X185.12Y-65.0
X187.66Y-65.0
X190.2Y-65.0
X192.74Y-65.0
X195.28Y-65.0
X197.82Y-65.0
X200.36Y-65.0
X202.9Y-65.0
X205.44Y-65.0
X207.98Y-65.0
X210.52Y-65.0
X213.06Y-65.0
X215.6Y-65.0
X218.14Y-65.0
X220.68Y-65.0
X223.22Y-65.0
X225.76Y-65.0
X228.3Y-65.0
X230.84Y-65.0
X233.38Y-65.0
X235.92Y-65.0
T3
X29.19Y-74.96
X31.69Y-130.96
X33.69Y-48.46
X34.15Y-93.54
X35.54Y-72.42
X36.69Y-112.46
X38.04Y-128.42
X39.19Y-149.96
X40.04Y-45.92
X40.5Y-91.0
X43.04Y-109.92
X45.54Y-147.42
X47.69Y-74.96
X53.19Y-130.96
X54.04Y-72.42
X56.69Y-93.46
X59.54Y-128.42
X61.69Y-112.46
X63.04Y-90.92
X63.19Y-48.46
X66.69Y-74.96
X68.04Y-109.92
X69.54Y-45.92
X69.69Y-149.96
X71.69Y-131.46
X73.04Y-72.42
X75.69Y-93.46
X76.04Y-147.42
X78.04Y-128.92
X80.69Y-112.46
X82.04Y-90.92
X85.69Y-74.96
X87.04Y-109.92
X90.69Y-48.46
X90.69Y-130.96
X92.04Y-72.42
X94.69Y-93.46
X97.04Y-45.92
X97.04Y-128.42
X99.19Y-112.46
X101.04Y-90.92
X104.19Y-74.96
X105.54Y-109.92
X109.69Y-130.96
X110.54Y-72.42
X113.69Y-93.46
X116.04Y-128.42
X118.19Y-48.46
X118.19Y-112.46
X120.04Y-90.92
X123.19Y-74.96
X124.54Y-45.92
X124.54Y-109.92
X128.69Y-130.96
X129.54Y-72.42
X132.19Y-93.46
X135.04Y-128.42
X137.19Y-112.46
X138.54Y-90.92
X142.19Y-74.96
X143.54Y-109.92
X147.19Y-48.46
X147.19Y-130.96
X148.54Y-72.42
X149.69Y-149.96
X150.69Y-93.46
X153.54Y-45.92
X153.54Y-128.42
X155.69Y-112.46
X156.04Y-147.42
X157.04Y-90.92
X160.69Y-74.96
X162.04Y-109.92
X165.69Y-130.96
X167.04Y-72.42
X169.19Y-93.46
X172.04Y-128.42
X174.69Y-112.46
X175.54Y-90.92
X179.69Y-74.96
X181.04Y-109.92
X184.19Y-130.96
X186.04Y-72.42
X188.19Y-93.46
X190.54Y-128.42
X193.19Y-112.46
X194.54Y-90.92
X198.19Y-74.96
X199.54Y-109.92
X203.19Y-130.96
X204.54Y-72.42
X207.19Y-93.46
X209.54Y-128.42
X211.69Y-112.46
X213.54Y-90.92
X217.19Y-74.96
X218.04Y-109.92
X221.69Y-130.96
X223.54Y-72.42
X225.69Y-93.46
X228.04Y-128.42
X230.69Y-112.46
X232.04Y-90.92
X235.69Y-74.96
X236.15Y-149.54
X237.04Y-109.92
X240.69Y-47.96
X240.69Y-130.96
X242.04Y-72.42
X242.5Y-147.0
X244.69Y-93.46
X247.04Y-45.42
X247.04Y-128.42
X249.69Y-112.46
X251.04Y-90.92
X254.69Y-74.96
X256.04Y-109.92
X261.04Y-72.42
X263.19Y-93.46
X263.19Y-139.46
X268.69Y-112.46
X269.19Y-47.96
X269.54Y-90.92
X269.54Y-136.92
X273.69Y-74.96
X275.04Y-109.92
X275.54Y-45.42
X280.04Y-72.42
X282.19Y-93.46
X282.19Y-130.46
X282.19Y-149.96
X288.54Y-90.92
X288.54Y-127.92
X288.54Y-147.42
X297.19Y-47.96
X297.19Y-74.96
X301.15Y-102.04
X301.19Y-139.96
X303.54Y-45.42
X303.54Y-72.42
X307.5Y-99.5
X307.54Y-137.42
X338.69Y-73.96
X338.69Y-92.96
X338.69Y-111.96
X338.69Y-130.96
X338.69Y-149.96
X343.69Y-47.96
X345.04Y-71.42
X345.04Y-90.42
X345.04Y-109.42
X345.04Y-128.42
X345.04Y-147.42
X350.04Y-45.42
X357.69Y-73.96
X357.69Y-92.96
X357.69Y-111.96
X357.69Y-130.96
X357.69Y-149.96
X364.04Y-71.42
X364.04Y-90.42
X364.04Y-109.42
X364.04Y-128.42
X364.04Y-147.42
X371.69Y-47.96
X376.69Y-73.96
X376.69Y-92.96
X376.69Y-111.96
X376.69Y-130.96
X376.69Y-149.96
X378.04Y-45.42
X383.04Y-71.42
X383.04Y-90.42
X383.04Y-109.42
X383.04Y-128.42
X383.04Y-147.42
M30
