M48
; DRILL file {KiCad 8.99.0-99-g23169ca1a7} date 2024-03-31T01:19:05-0300
; FORMAT={-:-/ absolute / metric / decimal}
; #@! TF.CreationDate,2024-03-31T01:19:05-03:00
; #@! TF.GenerationSoftware,Kicad,Pcbnew,8.99.0-99-g23169ca1a7
; #@! TF.FileFunction,NonPlated,1,2,NPTH
FMAT,2
METRIC
; #@! TA.AperFunction,NonPlated,NPTH,ComponentDrill
T1C4.000
%
G90
G05
T1
X33.0Y-77.5
X35.5Y-133.5
X37.5Y-51.0
X37.96Y-96.08
X40.5Y-115.0
X43.0Y-152.5
X51.5Y-77.5
X57.0Y-133.5
X60.5Y-96.0
X65.5Y-115.0
X67.0Y-51.0
X70.5Y-77.5
X73.5Y-152.5
X75.5Y-134.0
X79.5Y-96.0
X84.5Y-115.0
X89.5Y-77.5
X94.5Y-51.0
X94.5Y-133.5
X98.5Y-96.0
X103.0Y-115.0
X108.0Y-77.5
X113.5Y-133.5
X117.5Y-96.0
X122.0Y-51.0
X122.0Y-115.0
X127.0Y-77.5
X132.5Y-133.5
X136.0Y-96.0
X141.0Y-115.0
X146.0Y-77.5
X151.0Y-51.0
X151.0Y-133.5
X153.5Y-152.5
X154.5Y-96.0
X159.5Y-115.0
X164.5Y-77.5
X169.5Y-133.5
X173.0Y-96.0
X178.5Y-115.0
X183.5Y-77.5
X188.0Y-133.5
X192.0Y-96.0
X197.0Y-115.0
X202.0Y-77.5
X207.0Y-133.5
X211.0Y-96.0
X215.5Y-115.0
X221.0Y-77.5
X225.5Y-133.5
X229.5Y-96.0
X234.5Y-115.0
X239.5Y-77.5
X239.96Y-152.08
X244.5Y-50.5
X244.5Y-133.5
X248.5Y-96.0
X253.5Y-115.0
X258.5Y-77.5
X267.0Y-96.0
X267.0Y-142.0
X272.5Y-115.0
X273.0Y-50.5
X277.5Y-77.5
X286.0Y-96.0
X286.0Y-133.0
X286.0Y-152.5
X301.0Y-50.5
X301.0Y-77.5
X304.96Y-104.58
X305.0Y-142.5
X342.5Y-76.5
X342.5Y-95.5
X342.5Y-114.5
X342.5Y-133.5
X342.5Y-152.5
X347.5Y-50.5
X361.5Y-76.5
X361.5Y-95.5
X361.5Y-114.5
X361.5Y-133.5
X361.5Y-152.5
X375.5Y-50.5
X380.5Y-76.5
X380.5Y-95.5
X380.5Y-114.5
X380.5Y-133.5
X380.5Y-152.5
M30
