<?xml version="1.0"?>
<svg xmlns="http://www.w3.org/2000/svg" xmlns:lc="https://librecad.org" xmlns:xlink="http://www.w3.org/1999/xlink" width="2000mm" height="1126mm" viewBox="0 0 2000 1126">
    <g lc:layername="0" lc:is_locked="false" lc:is_construction="false" fill="none" stroke="black" stroke-width="1">
        <line x1="24.69951299" y1="1109.27756816" x2="24.69951299" y2="1099.27756816"/>
        <circle cx="301.25244891" cy="354.94974416" r="11.53495965"/>
        <circle cx="407.57545904" cy="353.59242914" r="11.41230313"/>
        <circle cx="507.64815669" cy="353.45832366" r="11.50060577"/>
        <circle cx="608.05448913" cy="351.73184112" r="11.31503064"/>
        <circle cx="713.53688713" cy="350.87779909" r="11.14000221"/>
        <circle cx="285.30399739" cy="451.43222037" r="11.49162214"/>
        <circle cx="353.05663895" cy="450.30112452" r="11.01875473"/>
        <circle cx="422.61903388" cy="450.18801494" r="11.34991425"/>
        <circle cx="491.05033295" cy="449.05691908" r="11.33468665"/>
        <circle cx="304.4195173" cy="519.18486194" r="11.12448728"/>
        <circle cx="386.87640494" cy="518.73242359" r="10.9576279"/>
        <circle cx="454.87082067" cy="518.02889857" r="11.19580376"/>
        <circle cx="523.49587219" cy="517.7651725" r="11.25715735"/>
        <circle cx="592.43601518" cy="516.96932669" r="11.24836269"/>
        <circle cx="559.09734896" cy="448.79270478" r="11.01826625"/>
        <circle cx="627.04763104" cy="448.04822957" r="11.33021393"/>
        <circle cx="695.71802368" cy="447.41630549" r="11.55018588"/>
        <circle cx="763.82024638" cy="446.80069217" r="11.56837173"/>
        <circle cx="832.07637242" cy="445.8772722" r="11.54916047"/>
        <circle cx="900.17859512" cy="445.18470723" r="11.12636977"/>
        <circle cx="968.76022669" cy="444.58533072" r="11.16774995"/>
        <circle cx="1037.00557949" cy="443.88537838" r="11.18008168"/>
        <circle cx="1105.1778282" cy="442.87615731" r="11.60031979"/>
        <circle cx="1173.74176089" cy="442.79920564" r="11.77385608"/>
        <circle cx="1260.73138715" cy="441.55099145" r="11.45865185"/>
        <circle cx="1411.72449405" cy="439.92668191" r="11.83289644"/>
        <circle cx="1480.47109387" cy="439.10552577" r="11.62072046"/>
        <circle cx="1549.95844653" cy="438.41296079" r="11.95948688"/>
        <circle cx="1053.97031966" cy="347.13799991" r="11.5383236"/>
        <circle cx="1158.06148882" cy="345.91976776" r="11.39531732"/>
        <circle cx="1259.78387325" cy="344.63385605" r="11.74138031"/>
        <circle cx="1429.15387595" cy="343.26723002" r="11.82076565"/>
        <circle cx="1530.56662718" cy="341.76167072" r="11.51835581"/>
        <circle cx="660.14916289" cy="515.90468396" r="11.51331128"/>
        <circle cx="728.12802362" cy="515.45224562" r="11.94471495"/>
        <circle cx="796.27202236" cy="514.18386637" r="11.32552128"/>
        <circle cx="864.51580027" cy="514.38282782" r="11.40953287"/>
        <circle cx="932.57524569" cy="513.44083326" r="11.34352099"/>
        <circle cx="1000.84186205" cy="512.5468539" r="11.53355881"/>
        <circle cx="1069.46893977" cy="511.93773783" r="11.12912178"/>
        <circle cx="1137.57297411" cy="511.05451059" r="10.98758564"/>
        <circle cx="1206.36926646" cy="510.20886337" r="11.60031979"/>
        <circle cx="1275.2410058" cy="541.68209397" r="11.83580635"/>
        <circle cx="1412.0050437" cy="508.10600524" r="11.383644"/>
        <circle cx="1480.6249972" cy="507.90031345" r="11.42725734"/>
        <circle cx="1550.01949808" cy="507.54255433" r="10.99532224"/>
        <circle cx="1550.82441628" cy="576.48716163" r="10.91506802"/>
        <circle cx="1481.54211163" cy="576.54467099" r="11.03960221"/>
        <circle cx="1413.15676506" cy="577.39873864" r="11.11179808"/>
        <circle cx="1413.6000978" cy="645.41293714" r="10.90923851"/>
        <circle cx="1482.08707882" cy="645.87464712" r="11.52760585"/>
        <circle cx="474.24390103" cy="586.675655" r="10.7649677"/>
        <circle cx="313.42985175" cy="587.72558351" r="11.28808784"/>
        <circle cx="405.64857206" cy="587.11312521" r="11.15162966"/>
        <circle cx="296.58033662" cy="656.73974645" r="11.15781781"/>
        <circle cx="374.3742642" cy="656.04338137" r="11.07100255"/>
        <circle cx="324.04148622" cy="725.21181278" r="11.10159444"/>
        <circle cx="434.92883415" cy="724.13448948" r="11.31163288"/>
        <circle cx="442.48546049" cy="655.35073357" r="11.02429255"/>
        <circle cx="511.50097777" cy="654.3975109" r="10.75030752"/>
        <circle cx="579.33396876" cy="653.39996692" r="11.3079432"/>
        <circle cx="542.25858398" cy="585.23446126" r="10.5426027"/>
        <circle cx="611.64491853" cy="585.06250117" r="10.65434368"/>
        <circle cx="648.63973358" cy="652.76447496" r="10.70938974"/>
        <circle cx="725.75272233" cy="720.97236201" r="11.35667552"/>
        <circle cx="715.91218842" cy="651.97551501" r="11.42630768"/>
        <circle cx="679.15157321" cy="585.01464055" r="11.1388537"/>
        <circle cx="747.4697627" cy="583.77043511" r="10.97221279"/>
        <circle cx="783.7978218" cy="651.77122229" r="11.11312111"/>
        <circle cx="815.73314715" cy="583.17589332" r="10.63007603"/>
        <circle cx="851.87914207" cy="650.88388236" r="11.391498"/>
        <circle cx="920.70925848" cy="650.27476629" r="10.44635767"/>
        <circle cx="883.27048806" cy="581.99461462" r="10.6866532"/>
        <circle cx="951.56006082" cy="581.09437543" r="11.27409813"/>
        <circle cx="988.85568437" cy="649.51255379" r="11.00386055"/>
        <circle cx="1040.16931814" cy="717.67352096" r="11.21894975"/>
        <circle cx="1056.88804593" cy="648.22649781" r="11.44011677"/>
        <circle cx="1019.50677108" cy="581.33335629" r="10.86118154"/>
        <circle cx="1088.44691406" cy="580.33854903" r="10.90210722"/>
        <circle cx="1156.62087246" cy="579.92456806" r="11.43121894"/>
        <circle cx="1207.49735663" cy="647.16290583" r="11.34308779"/>
        <circle cx="1138.91570855" cy="680.0925674" r="11.54711738"/>
        <circle cx="1208.40714655" cy="716.70361127" r="11.03720141"/>
        <circle cx="1276.78297648" cy="678.94726073" r="11.32587567"/>
        <circle cx="1551.28397584" cy="644.57589929" r="11.68424864"/>
        <circle cx="1551.4302004" cy="713.59389417" r="11.64024692"/>
        <circle cx="1482.41220553" cy="714.03256786" r="11.1601056"/>
        <circle cx="1413.97910892" cy="714.61746612" r="11.00965139"/>
        <line x1="380.55120382" y1="813.74190298" x2="745.44039588" y2="813.6114969"/>
    </g>
</svg>
